PathFileType	4	(X/Y/Z)	C:/Users/beibeiliu/ov580/test_trc/capture2\sequence.4_training_dense_left.trc
DataRate	CameraRate	NumFrames	NumMarkers	Units	OrigDataRate	OrigDataStartFrame	OrigNumFrames
120	120	21	19	mm	120	267	355
Frame#	Time	ThumbCMC			ThumbMCP			ThumbIP			ThumbTip			IndexMCP			IndexPIP			IndexTip			MiddleMCP			MiddlePIP			MiddleTip			RingMCP			RingPIP			RingTip			PinkyMCP			PinkyPIP			PinkyTip			BackHand1			BackHand2			BackHand3	
		X0	Y0	Z0	X1	Y1	Z1	X2	Y2	Z2	X3	Y3	Z3	X4	Y4	Z4	X5	Y5	Z5	X6	Y6	Z6	X7	Y7	Z7	X8	Y8	Z8	X9	Y9	Z9	X10	Y10	Z10	X11	Y11	Z11	X12	Y12	Z12	X13	Y13	Z13	X14	Y14	Z14	X15	Y15	Z15	X16	Y16	Z16	X17	Y17	Z17	X18	Y18	Z18	
266	2.21667	-149.715	55.2223	-34.1259	-122.869	60.1186	-49.8575	-105.748	62.6357	-70.9821	-94.9227	44.4402	-89.2401	-152.818	39.8993	-102.2	-145.635	46.4107	-125.569	-137.496	45.6737	-148.969	-124.892	23.3012	-98.3735	-96.8335	35.3205	-86.5863	-113.189	38.992	-50.2867	-115.385	13.7304	-85.4627	-95.8729	25.0922	-63.464	-120.819	28.3818	-35.5334	-110.061	0.907004	-72.2583	-100.851	15.7027	-47.086	-127.305	20.2383	-31.3311	-162.303	-2.94938	-59.0307	-169.154	-5.40738	-25.474	-176.495	27.6795	-43.5105	
267	2.225	-154.459	53.0448	-33.6852	-127.635	63.007	-52.567	-111.827	60.8194	-71.4284	-98.3222	45.8528	-92.9957	-159.768	36.4375	-102.545	-151.197	41.2034	-130.073	-143.647	37.2381	-154.58	-127.098	23.8459	-100.461	-102.447	35.6682	-89.6817	-115.339	41.6804	-53.4995	-117.503	8.85031	-84.6876	-99.6761	28.1548	-62.9575	-119.498	29.2982	-37.8558	-114.017	0.0626789	-72.9267	-102.808	16.9497	-50.695	-126.588	19.7725	-29.9931	-161.078	-10.7878	-55.4091	-168.506	-8.64161	-21.7134	-177.519	21.5479	-41.711	
268	2.23333	-159.358	51.2079	-32.4843	-133.252	58.4661	-52.7517	-116.045	61.4256	-78.4317	-104.068	45.8515	-92.0057	-163.825	34.0134	-106.356	-158.216	35.1804	-126.022	-150.214	32.1238	-154.974	-131.138	19.3644	-99.7864	-104.84	34.8216	-86.9289	-116.156	39.9242	-56.2578	-118.027	7.91035	-84.2175	-103.389	27.5992	-65.9969	-121.136	29.2014	-40.7096	-111.248	-4.03139	-72.4408	-104.06	17.1597	-53.1493	-129.939	18.2066	-31.6931	-161.951	-13.5695	-53.0515	-169.707	-9.74167	-19.3474	-179.358	15.1564	-43.9643	
269	2.24167	-162.924	50.3899	-30.4663	-136.79	60.0548	-55.1207	-122.322	58.8943	-76.7725	-107.126	41.1818	-97.1314	-167.216	26.8824	-101.353	-161.489	27.2475	-126.565	-156.218	27.7068	-151.452	-136.362	13.3562	-97.0814	-109.782	31.041	-92.1587	-119.373	36.6077	-56.3933	-121.778	9.9354	-86.072	-106.129	28.5138	-64.9671	-126.8	25.6202	-36.9991	-115.624	-6.79902	-72.4496	-104.566	15.6239	-53.8172	-125.007	17.7691	-30.9974	-160.918	-14.896	-49.2479	-171.448	-11.201	-19.2917	-181.935	15.8275	-37.9784	
270	2.25	-164.693	40.7601	-31.4963	-141.426	55.7997	-56.9636	-127.02	56.5824	-80.1002	-113.288	41.5711	-96.7713	-171.171	17.8398	-102.15	-163.931	17.1303	-125.963	-160.161	16.5717	-149.656	-138.071	12.8274	-99.9088	-113.314	29.2174	-92.9017	-126.874	34.5068	-55.6132	-124.417	4.91232	-85.5627	-105.425	23.2072	-68.6875	-129.931	26.268	-39.3607	-116.742	-9.32026	-71.6468	-106.333	14.7656	-58.3375	-128.447	17.4299	-28.7673	-160.062	-20.0802	-47.8266	-166.561	-15.7785	-16.322	-183.216	6.45215	-37.5789	
271	2.25833	-169.318	37.3535	-33.7162	-146.994	51.9565	-59.4392	-132.982	52.4211	-81.9502	-118.531	33.7648	-95.3923	-174.868	8.89663	-103.499	-169.378	9.95867	-126.902	-162.74	3.71328	-152.337	-138.812	5.02614	-99.3962	-119.821	27.4945	-95.3366	-127.81	33.6108	-59.8308	-127.35	-1.2332	-83.8017	-112.334	24.0703	-70.6634	-128.204	23.5951	-41.0079	-117.784	-9.75979	-71.1219	-108.054	15.0466	-54.1384	-131.43	13.9248	-31.1729	-157.322	-26.9699	-47.3951	-166.546	-20.3791	-14.2248	-181.321	0.577579	-37.6032	
272	2.26667	-172.482	33.5376	-32.1342	-151.954	43.9161	-56.4985	-136.802	43.7586	-86.4447	-123.653	31.58	-97.3093	-174.905	-4.10432	-98.2964	-172.769	-2.06443	-122.267	-166.069	-9.40724	-146.394	-142.032	-3.30325	-98.6084	-120.789	20.3841	-91.6132	-131.97	28.9747	-61.7224	-127.045	-5.10746	-85.277	-114.492	18.1842	-75.4004	-131.606	22.3051	-44.4246	-117.701	-17.2723	-70.4679	-108.882	10.7056	-57.5026	-126.647	12.2156	-32.5767	-157.497	-32.4235	-40.131	-166.508	-23.7934	-9.98222	-182.89	-4.74297	-33.3719	
273	2.275	-174.828	26.7821	-35.1243	-154.643	38.6664	-57.4195	-140.822	35.1653	-84.4326	-126.386	23.1746	-98.3622	-181.019	-10.092	-94.8785	-177.462	-12.6729	-121.481	-172.564	-19.6398	-146.66	-147.206	-11.6138	-95.6344	-124.12	10.3977	-96.6004	-134.65	23.9175	-62.6652	-126.666	-14.2003	-85.0261	-116.879	11.9758	-77.3811	-132.95	17.4328	-43.7104	-120.208	-22.6819	-69.8251	-109.552	6.30302	-58.2745	-128.578	12.8396	-35.796	-158.17	-37.2869	-37.289	-164.221	-27.8424	-7.28926	-181.269	-13.17	-31.3722	
274	2.28333	-174.726	19.3695	-33.1907	-158.351	34.1648	-60.3176	-145.181	31.1615	-88.5691	-129.179	15.9105	-101.93	-178.92	-23.0968	-93.0839	-177.385	-26.5122	-117.768	-173.555	-36.1038	-142.908	-149.874	-20.4686	-95.3292	-131.213	6.69472	-97.6203	-136.981	17.6972	-63.8806	-128.963	-22.4721	-83.1934	-116.717	4.48313	-76.759	-130.877	12.3009	-46.0166	-117.699	-27.7854	-69.9948	-110.714	-0.276862	-60.1698	-130.071	6.86895	-33.6891	-158.665	-40.2764	-37.0923	-162.947	-32.2916	-8.98664	-183.855	-18.5922	-26.8803	
275	2.29167	-179.106	14.9389	-34.2857	-161.648	26.2024	-61.4419	-149.78	21.766	-89.2387	-131.548	2.79939	-103.52	-184.91	-31.4084	-90.7209	-182.37	-37.137	-118.331	-178.831	-48.3855	-138.438	-150.656	-27.5841	-94.0924	-134.991	0.171824	-95.8439	-138.252	6.60113	-60.4334	-135.711	-29.846	-81.8475	-119.977	-1.26056	-77.2883	-135.749	7.19231	-45.4885	-123.395	-34.1405	-68.9722	-115.478	-5.45848	-63.4764	-132.896	-0.441177	-35.4256	-155.402	-47.9153	-33.3835	-160.702	-40.1188	-4.89459	-184.595	-24.7403	-27.8503	
276	2.3	-177.728	7.35936	-30.4241	-163.205	18.3824	-61.7447	-152.443	13.5245	-85.2822	-136.569	-4.24295	-100.707	-186.828	-39.9004	-90.886	-184.535	-45.7913	-109.234	-181.021	-56.7304	-131.438	-153.545	-34.9694	-93.1904	-136.719	-8.75067	-95.793	-142.726	2.33219	-59.4665	-133.921	-36.8463	-80.1338	-120.726	-8.9075	-78.0101	-134.641	2.52806	-48.8754	-121.995	-37.7537	-70.14	-113.515	-11.3301	-63.6939	-131.608	-4.15975	-34.9975	-158.358	-53.1998	-30.9611	-160.34	-42.2734	-3.15442	-186.137	-30.445	-23.6598	
277	2.30833	-178.42	5.98611	-28.8643	-162.777	11.3644	-59.5704	-152.675	6.90773	-85.4556	-138.027	-9.21314	-99.8903	-187.078	-45.8305	-87.855	-187.174	-52.3852	-110.344	-185.531	-65.3055	-131.817	-155.209	-41.5136	-88.5341	-137.408	-16.7829	-95.8043	-144.043	-4.07413	-57.5452	-137.887	-40.8205	-80.6756	-121.142	-14.5686	-78.0311	-138.168	-2.56066	-48.3229	-123.838	-44.4617	-67.2674	-120.034	-15.0146	-64.8411	-131.084	-6.72754	-34.7516	-154.89	-57.1074	-27.6768	-159.786	-43.7263	0.684363	-182.329	-34.9211	-23.606	
278	2.31667	-179.465	3.30781	-27.5093	-165.167	11.2434	-61.3618	-155.853	4.07591	-87.2904	-139.735	-14.0697	-102.499	-190.035	-49.479	-84.8795	-187.83	-57.229	-107.569	-187.544	-70.3939	-126.977	-159.15	-43.9164	-88.4437	-139.229	-18.6719	-93.9322	-144.93	-8.35107	-58.658	-136.886	-46.1407	-77.6604	-123.631	-16.7192	-76.0622	-135.41	-5.98255	-47.3353	-122.408	-50.1501	-65.2088	-121.121	-18.1068	-64.4706	-133.128	-11.06	-39.0777	-154.037	-59.5821	-25.5034	-160.732	-46.5571	3.9914	-184.687	-36.7265	-21.8457	
279	2.325	-180.236	0.998986	-28.3085	-163.322	5.56591	-57.2156	-156.395	2.65024	-88.0295	-141.054	-15.5652	-100.883	-189.361	-53.2413	-82.2611	-190.893	-58.9377	-104.125	-187.785	-74.7188	-125.803	-156.533	-46.4913	-88.0556	-140.103	-21.1449	-92.1365	-145.605	-10.2603	-57.485	-137.002	-46.9681	-78.0557	-125.09	-17.2658	-75.1345	-138.697	-8.85352	-46.379	-123.563	-50.0898	-64.4452	-116.224	-22.6587	-65.0118	-129.4	-14.0776	-35.1637	-158.79	-60.0094	-27.1631	-157.629	-50.4498	4.77915	-184.817	-39.2296	-15.4606	
280	2.33333	-180.239	0.979834	-25.588	-164.905	6.24909	-58.227	-156.513	-2.59591	-83.0483	-143.913	-14.5606	-99.6392	-189.13	-52.5628	-78.008	-187.601	-62.1927	-99.5205	-188.656	-73.6609	-119.635	-161.137	-46.2067	-86.4417	-142.274	-24.6296	-94.2554	-148.922	-9.24536	-58.7108	-139.49	-49.473	-75.1685	-128.678	-16.7956	-75.3051	-137.765	-10.7341	-43.3577	-124.79	-51.182	-64.1831	-117.926	-21.4441	-62.5101	-132.762	-15.7919	-34.6731	-157.213	-61.547	-23.9254	-155.979	-49.4787	8.88127	-182.239	-39.9117	-13.5719	
281	2.34167	-177.755	-2.13124	-26.0228	-165.885	6.21016	-59.6032	-157.715	1.00806	-81.8812	-144.54	-17.3749	-96.5662	-188.573	-51.9521	-77.2381	-191.73	-61.8471	-102.435	-190.6	-74.5784	-122.014	-159.996	-46.3641	-88.2489	-142.186	-20.9356	-91.4349	-145.312	-11.8477	-58.4754	-139.589	-45.655	-78.4852	-126	-18.9655	-75.7183	-142.187	-9.94195	-45.0427	-123.016	-52.2551	-62.5247	-121.886	-20.2623	-62.7221	-135.645	-18.5167	-32.6538	-156.731	-59.9791	-25.2438	-156.38	-48.6519	6.65699	-181.788	-39.1387	-15.1721	
282	2.35	-180.746	-0.00620092	-29.0382	-165.209	6.91779	-55.0729	-160.295	4.45002	-82.5078	-145.295	-15.5553	-101.328	-191.477	-51.967	-80.3325	-192.469	-58.2821	-101.274	-190.87	-74.2073	-124.225	-156.76	-46.2273	-87.2826	-143.793	-19.4828	-93.644	-145.208	-8.95195	-60.3002	-140.695	-44.1068	-79.1582	-129.486	-15.8347	-75.7622	-138.959	-10.5867	-41.1029	-126.33	-47.8363	-66.0661	-119.541	-18.359	-60.9756	-136.497	-17.1698	-33.7613	-159.141	-61.0908	-24.9144	-154.3	-48.8627	6.17768	-186.189	-38.7195	-16.1657	
283	2.35833	-179.202	-0.173269	-25.859	-166.343	6.02887	-58.6887	-160.099	2.2985	-83.0657	-147.936	-12.4199	-101.056	-190.967	-49.0262	-77.388	-191.386	-57.1438	-99.6142	-189.654	-72.6203	-123.304	-159.736	-43.6097	-87.6495	-142.11	-20.7354	-93.6458	-144.347	-7.12705	-59.6397	-137.82	-44.8901	-77.255	-126.51	-15.1532	-74.6924	-139.015	-8.91618	-43.6417	-124.31	-46.312	-65.4849	-117.416	-18.8441	-61.3569	-134.903	-13.1731	-34.3737	-154.835	-60.8374	-22.3355	-159.274	-44.9976	5.24022	-186.233	-37.7041	-16.8818	
284	2.36667	-177.487	2.01213	-24.713	-165.817	10.7743	-55.4192	-160.831	6.57579	-82.7562	-146.574	-13.2753	-97.7274	-189.067	-46.6379	-75.9657	-189.21	-58.0122	-104.818	-190.732	-68.5231	-125.26	-160.253	-42.6609	-85.2196	-143.082	-18.4843	-95.4352	-146.143	-3.76748	-60.2967	-140.02	-40.7812	-77.8139	-127.551	-13.7278	-76.7964	-140.265	-5.64319	-45.7403	-127.604	-43.2926	-67.1134	-118.984	-17.7533	-64.4103	-136.02	-14.7988	-31.8283	-157.657	-56.3713	-26.037	-155.446	-46.4319	8.47071	-186.106	-33.7427	-16.4519	
285	2.375	-177.27	4.16934	-25.6354	-166.596	15.1666	-56.8333	-158.791	9.13867	-80.9727	-148.002	-4.61562	-101.605	-188.571	-44.4277	-80.7993	-193.312	-50.4345	-106.265	-191.478	-62.7134	-124.29	-157.68	-38.9643	-88.3513	-142.801	-11.9358	-93.2171	-146.602	-0.977903	-59.3949	-139.741	-39.7434	-76.1934	-129.158	-9.96989	-76.6353	-138.033	-4.60873	-43.0797	-127.819	-41.8046	-66.8461	-117.813	-13.8686	-62.759	-133.792	-10.6329	-35.9642	-157.931	-54.8221	-23.9101	-156.075	-44.0943	2.83813	-184.238	-31.2219	-14.2432	
286	2.38333	-176.357	7.17215	-28.1115	-163.725	19.3416	-54.6166	-158.015	14.1983	-84.2803	-146.101	-2.66838	-100.222	-190.001	-38.8993	-83.1425	-191.844	-44.9714	-105.315	-189.584	-57.1802	-123.75	-159.566	-35.8876	-85.9109	-141.754	-11.2393	-96.3444	-144.988	0.982832	-59.2697	-141.432	-32.1229	-81.6976	-126.287	-5.0075	-76.0441	-138.844	-0.920563	-43.3597	-124.607	-39.8067	-67.2482	-118.542	-11.1745	-66.917	-134.902	-5.95263	-36.8377	-155.801	-50.587	-28.3446	-159.932	-38.4002	2.20061	-184.988	-25.8201	-15.8359	
